<svg xmlns="http://www.w3.org/2000/svg" xmlns:xlink="http://www.w3.org/1999/xlink" width="1366" zoomAndPan="magnify" viewBox="0 0 1024.5 959.999988" height="768" preserveAspectRatio="xMidYMid meet" version="1.0"><defs><clipPath id="6f6c72147b"><path d="M 174 6 L 860 6 L 860 959.765625 L 174 959.765625 Z M 174 6 " clip-rule="nonzero"/></clipPath><clipPath id="7cf2b6a082"><path d="M 141.898438 926.726562 L 203.851562 -0.00390625 L 882.257812 45.351562 L 820.300781 972.078125 Z M 141.898438 926.726562 " clip-rule="nonzero"/></clipPath><clipPath id="447e735102"><path d="M 141.898438 926.726562 L 203.851562 -0.00390625 L 882.257812 45.351562 L 820.300781 972.078125 Z M 141.898438 926.726562 " clip-rule="nonzero"/></clipPath></defs><g clip-path="url(#6f6c72147b)"><g clip-path="url(#7cf2b6a082)"><g clip-path="url(#447e735102)"><path fill="#053780" d="M 859.558594 375.910156 C 859.382812 365.910156 857.824219 355.917969 854.8125 346.285156 C 854.214844 344.367188 852.171875 343.304688 850.257812 343.902344 C 848.347656 344.496094 847.277344 346.539062 847.878906 348.453125 C 850.683594 357.425781 852.125 366.726562 852.289062 376.039062 C 852.328125 378.042969 853.980469 379.648438 855.984375 379.609375 C 857.988281 379.574219 859.589844 377.914062 859.558594 375.910156 Z M 848.183594 426.765625 C 852.605469 417.785156 855.792969 408.191406 857.648438 398.332031 C 858.019531 396.363281 856.722656 394.464844 854.75 394.089844 C 852.785156 393.722656 850.882812 395.019531 850.507812 396.984375 C 848.769531 406.199219 845.796875 415.164062 841.667969 423.550781 C 840.777344 425.347656 841.515625 427.527344 843.320312 428.417969 C 845.117188 429.304688 847.296875 428.5625 848.183594 426.765625 Z M 845.695312 325.632812 C 840.757812 317.207031 834.46875 309.332031 826.746094 302.304688 C 825.261719 300.953125 822.960938 301.066406 821.613281 302.550781 C 820.261719 304.03125 820.371094 306.332031 821.859375 307.683594 C 829.015625 314.195312 834.851562 321.492188 839.421875 329.304688 C 840.433594 331.035156 842.667969 331.613281 844.398438 330.601562 C 846.128906 329.589844 846.707031 327.363281 845.695312 325.632812 Z M 814.132812 466.28125 C 822.574219 460.5625 829.9375 453.621094 836.140625 445.8125 C 837.394531 444.238281 837.128906 441.953125 835.5625 440.707031 C 833.988281 439.460938 831.699219 439.71875 830.453125 441.292969 C 824.703125 448.53125 817.878906 454.964844 810.0625 460.265625 C 808.394531 461.386719 807.964844 463.648438 809.085938 465.308594 C 810.214844 466.96875 812.472656 467.40625 814.132812 466.28125 Z M 808.886719 288.78125 C 800.316406 283.328125 791.402344 278.996094 782.203125 275.570312 C 780.320312 274.875 778.230469 275.832031 777.527344 277.707031 C 776.832031 279.585938 777.789062 281.683594 779.667969 282.378906 C 788.394531 285.632812 796.859375 289.746094 804.988281 294.914062 C 806.683594 295.984375 808.929688 295.484375 810.003906 293.796875 C 811.082031 292.101562 810.582031 289.855469 808.886719 288.78125 Z M 764.8125 483.128906 C 768.9375 482.746094 773.078125 482.167969 777.246094 481.382812 C 783.132812 480.269531 788.738281 478.683594 794.0625 476.675781 C 795.9375 475.96875 796.890625 473.867188 796.179688 471.992188 C 795.472656 470.117188 793.375 469.167969 791.496094 469.875 C 786.5625 471.738281 781.355469 473.210938 775.894531 474.242188 C 771.957031 474.984375 768.039062 475.53125 764.144531 475.890625 C 762.148438 476.074219 760.675781 477.847656 760.863281 479.84375 C 761.046875 481.839844 762.816406 483.3125 764.8125 483.128906 Z M 760.839844 269.269531 C 751.316406 267.121094 741.558594 265.714844 731.632812 264.851562 C 729.636719 264.679688 727.875 266.160156 727.699219 268.15625 C 727.527344 270.152344 729.007812 271.917969 731.003906 272.09375 C 740.605469 272.929688 750.035156 274.28125 759.238281 276.359375 C 761.195312 276.800781 763.144531 275.570312 763.585938 273.609375 C 764.027344 271.652344 762.796875 269.707031 760.839844 269.269531 Z M 713.160156 478.097656 C 722.824219 480.78125 732.574219 482.570312 742.4375 483.308594 C 744.433594 483.457031 746.179688 481.957031 746.324219 479.957031 C 746.476562 477.957031 744.972656 476.210938 742.976562 476.0625 C 733.582031 475.359375 724.308594 473.648438 715.101562 471.09375 C 713.171875 470.558594 711.164062 471.691406 710.628906 473.625 C 710.09375 475.558594 711.226562 477.5625 713.160156 478.097656 Z M 709.613281 263.753906 C 699.957031 263.582031 690.1875 263.765625 680.351562 264.128906 C 678.347656 264.203125 676.78125 265.886719 676.855469 267.894531 C 676.929688 269.898438 678.617188 271.46875 680.621094 271.394531 C 690.320312 271.035156 699.960938 270.847656 709.484375 271.019531 C 711.488281 271.054688 713.148438 269.453125 713.183594 267.445312 C 713.21875 265.441406 711.617188 263.785156 709.613281 263.753906 Z M 665.59375 458.117188 C 674.414062 462.953125 683.257812 467.25 692.15625 470.878906 C 694.011719 471.632812 696.132812 470.742188 696.890625 468.882812 C 697.648438 467.027344 696.753906 464.90625 694.898438 464.148438 C 686.253906 460.625 677.65625 456.445312 669.085938 451.746094 C 667.328125 450.78125 665.117188 451.425781 664.152344 453.183594 C 663.1875 454.941406 663.832031 457.152344 665.59375 458.117188 Z M 645.414062 952.792969 C 644.617188 952.617188 642.53125 952.15625 642.195312 952.074219 C 635.023438 950.320312 627.902344 947.730469 620.890625 944.660156 C 619.054688 943.855469 616.910156 944.691406 616.105469 946.53125 C 615.300781 948.367188 616.140625 950.511719 617.976562 951.316406 C 625.378906 954.558594 632.898438 957.28125 640.46875 959.132812 C 641.199219 959.308594 644.878906 960.320312 646.707031 960.070312 C 648.449219 959.828125 649.554688 958.902344 650.140625 957.835938 C 651.109375 956.078125 650.46875 953.867188 648.710938 952.898438 C 647.652344 952.316406 646.429688 952.316406 645.414062 952.792969 Z M 656.589844 655.285156 C 662.152344 647.277344 665.808594 637.828125 666.996094 626.550781 C 667.207031 624.558594 665.757812 622.765625 663.765625 622.558594 C 661.769531 622.347656 659.980469 623.796875 659.769531 625.789062 C 658.722656 635.734375 655.527344 644.078125 650.621094 651.140625 C 649.476562 652.785156 649.886719 655.054688 651.53125 656.199219 C 653.179688 657.339844 655.445312 656.933594 656.589844 655.285156 Z M 665.832031 603.757812 C 663.851562 594.042969 660.113281 584.574219 655.332031 575.636719 C 654.386719 573.871094 652.183594 573.203125 650.414062 574.148438 C 648.648438 575.09375 647.980469 577.296875 648.925781 579.066406 C 653.371094 587.375 656.867188 596.175781 658.710938 605.210938 C 659.113281 607.175781 661.035156 608.445312 663 608.046875 C 664.964844 607.644531 666.234375 605.722656 665.832031 603.757812 Z M 613.921875 685.433594 C 623.789062 681.59375 632.757812 677.046875 640.398438 671.496094 C 642.019531 670.320312 642.382812 668.046875 641.203125 666.421875 C 640.027344 664.800781 637.75 664.4375 636.128906 665.617188 C 628.960938 670.820312 620.535156 675.058594 611.285156 678.664062 C 609.417969 679.390625 608.492188 681.5 609.21875 683.367188 C 609.945312 685.234375 612.054688 686.160156 613.921875 685.433594 Z M 622.34375 430.597656 C 630.449219 436.339844 638.539062 441.816406 646.632812 446.917969 C 648.332031 447.988281 650.574219 447.480469 651.644531 445.78125 C 652.714844 444.085938 652.203125 441.839844 650.507812 440.773438 C 642.523438 435.742188 634.542969 430.339844 626.546875 424.667969 C 624.910156 423.511719 622.640625 423.898438 621.480469 425.53125 C 620.320312 427.167969 620.707031 429.4375 622.34375 430.597656 Z M 643.339844 556.824219 C 640.832031 553.433594 638.234375 550.175781 635.609375 547.078125 C 631.925781 542.730469 628.035156 538.527344 623.953125 534.46875 C 622.53125 533.054688 620.226562 533.0625 618.8125 534.484375 C 617.398438 535.90625 617.40625 538.207031 618.828125 539.621094 C 622.765625 543.53125 626.515625 547.585938 630.0625 551.773438 C 632.589844 554.753906 635.085938 557.882812 637.496094 561.144531 C 638.6875 562.757812 640.964844 563.097656 642.578125 561.90625 C 644.191406 560.714844 644.53125 558.4375 643.339844 556.824219 Z M 658.515625 265.144531 C 648.851562 265.660156 639.171875 266.214844 629.519531 266.636719 C 627.515625 266.722656 625.960938 268.421875 626.046875 270.421875 C 626.136719 272.425781 627.832031 273.984375 629.835938 273.894531 C 639.511719 273.472656 649.214844 272.917969 658.902344 272.402344 C 660.902344 272.296875 662.441406 270.585938 662.335938 268.582031 C 662.230469 266.578125 660.519531 265.042969 658.515625 265.144531 Z M 601.648438 935.105469 C 593.96875 930.925781 586.496094 926.527344 579.316406 922.394531 C 578.402344 921.867188 577.460938 921.320312 576.5 920.757812 C 574.773438 919.742188 572.542969 920.324219 571.527344 922.054688 C 570.515625 923.785156 571.097656 926.011719 572.824219 927.027344 C 573.804688 927.601562 574.757812 928.15625 575.691406 928.691406 C 582.917969 932.855469 590.441406 937.28125 598.175781 941.488281 C 599.9375 942.445312 602.144531 941.792969 603.101562 940.03125 C 604.0625 938.269531 603.410156 936.0625 601.648438 935.105469 Z M 607.445312 519.679688 C 599.851562 513.539062 591.792969 507.84375 583.363281 502.628906 C 581.65625 501.574219 579.414062 502.101562 578.359375 503.808594 C 577.304688 505.511719 577.832031 507.753906 579.539062 508.808594 C 587.707031 513.863281 595.515625 519.382812 602.875 525.332031 C 604.433594 526.589844 606.722656 526.347656 607.984375 524.789062 C 609.246094 523.230469 609.003906 520.941406 607.445312 519.679688 Z M 564.40625 699.21875 C 574.132812 697.136719 583.71875 694.914062 592.878906 692.347656 C 594.8125 691.808594 595.941406 689.800781 595.398438 687.871094 C 594.859375 685.941406 592.851562 684.8125 590.921875 685.351562 C 581.902344 687.878906 572.464844 690.066406 562.886719 692.113281 C 560.925781 692.53125 559.675781 694.464844 560.09375 696.425781 C 560.515625 698.386719 562.445312 699.640625 564.40625 699.21875 Z M 581.492188 400.039062 C 589.253906 406.039062 596.96875 411.957031 604.65625 417.695312 C 606.265625 418.902344 608.542969 418.566406 609.742188 416.960938 C 610.945312 415.355469 610.613281 413.074219 609.007812 411.875 C 601.351562 406.15625 593.664062 400.261719 585.9375 394.289062 C 584.351562 393.0625 582.066406 393.359375 580.839844 394.9375 C 579.613281 396.527344 579.90625 398.816406 581.492188 400.039062 Z M 607.839844 267.300781 C 598.152344 267.429688 588.539062 267.296875 579.054688 266.714844 C 577.050781 266.59375 575.328125 268.117188 575.207031 270.121094 C 575.082031 272.125 576.609375 273.847656 578.609375 273.96875 C 588.273438 274.5625 598.070312 274.699219 607.9375 274.566406 C 609.941406 274.535156 611.546875 272.882812 611.519531 270.878906 C 611.492188 268.875 609.84375 267.269531 607.839844 267.300781 Z M 558.074219 909.402344 C 550.570312 904.566406 542.496094 899.109375 534.203125 893.144531 C 532.574219 891.972656 530.300781 892.34375 529.132812 893.972656 C 527.960938 895.601562 528.332031 897.871094 529.960938 899.042969 C 538.359375 905.085938 546.535156 910.613281 554.136719 915.511719 C 555.820312 916.597656 558.070312 916.113281 559.160156 914.425781 C 560.246094 912.738281 559.757812 910.488281 558.074219 909.402344 Z M 564.054688 491.84375 C 555.296875 487.449219 546.25 483.542969 537 480.160156 C 535.117188 479.472656 533.027344 480.441406 532.339844 482.324219 C 531.648438 484.207031 532.621094 486.296875 534.503906 486.984375 C 543.496094 490.273438 552.285156 494.070312 560.792969 498.339844 C 562.585938 499.238281 564.769531 498.515625 565.671875 496.722656 C 566.570312 494.929688 565.84375 492.746094 564.054688 491.84375 Z M 541.222656 369.03125 C 548.964844 374.871094 556.640625 380.78125 564.257812 386.6875 C 565.84375 387.910156 568.128906 387.617188 569.355469 386.03125 C 570.582031 384.449219 570.292969 382.167969 568.707031 380.9375 C 561.0625 375.019531 553.367188 369.085938 545.597656 363.226562 C 543.996094 362.019531 541.71875 362.339844 540.507812 363.941406 C 539.300781 365.542969 539.621094 367.820312 541.222656 369.03125 Z M 514.695312 709.667969 C 523.890625 707.515625 533.421875 705.566406 543.015625 703.625 C 544.980469 703.226562 546.253906 701.304688 545.855469 699.339844 C 545.457031 697.375 543.539062 696.101562 541.574219 696.5 C 531.910156 698.457031 522.304688 700.421875 513.039062 702.589844 C 511.085938 703.046875 509.871094 705.003906 510.328125 706.957031 C 510.785156 708.90625 512.742188 710.121094 514.695312 709.667969 Z M 557.679688 264.542969 C 548.21875 263.144531 538.9375 261.140625 529.894531 258.320312 C 527.980469 257.71875 525.941406 258.789062 525.34375 260.703125 C 524.746094 262.617188 525.816406 264.65625 527.730469 265.257812 C 537.132812 268.1875 546.785156 270.277344 556.617188 271.730469 C 558.601562 272.027344 560.449219 270.648438 560.742188 268.667969 C 561.035156 266.683594 559.664062 264.832031 557.679688 264.542969 Z M 516.890625 880.144531 C 509.425781 874.285156 501.980469 868.089844 494.804688 861.632812 C 493.3125 860.292969 491.015625 860.414062 489.671875 861.90625 C 488.332031 863.398438 488.453125 865.695312 489.945312 867.039062 C 497.242188 873.601562 504.8125 879.902344 512.40625 885.863281 C 513.984375 887.101562 516.269531 886.824219 517.507812 885.246094 C 518.746094 883.671875 518.46875 881.382812 516.890625 880.144531 Z M 500.011719 339.59375 C 508.019531 344.90625 515.929688 350.4375 523.757812 356.101562 C 525.378906 357.277344 527.652344 356.914062 528.832031 355.289062 C 530.003906 353.667969 529.640625 351.390625 528.015625 350.214844 C 520.109375 344.496094 512.121094 338.90625 504.03125 333.539062 C 502.359375 332.433594 500.101562 332.890625 498.992188 334.554688 C 497.886719 336.230469 498.34375 338.480469 500.011719 339.59375 Z M 515.933594 473.460938 C 506.429688 470.882812 496.785156 468.851562 487.085938 467.402344 C 485.105469 467.105469 483.253906 468.476562 482.957031 470.457031 C 482.660156 472.441406 484.03125 474.292969 486.011719 474.589844 C 495.433594 475.996094 504.796875 477.96875 514.027344 480.476562 C 515.964844 481 517.960938 479.855469 518.488281 477.921875 C 519.011719 475.984375 517.867188 473.988281 515.933594 473.460938 Z M 467.53125 725.636719 C 475.320312 721.488281 484.230469 718.109375 493.851562 715.179688 C 495.769531 714.597656 496.855469 712.5625 496.269531 710.644531 C 495.6875 708.726562 493.65625 707.644531 491.734375 708.226562 C 481.636719 711.300781 472.292969 714.867188 464.117188 719.222656 C 462.347656 720.164062 461.675781 722.367188 462.617188 724.136719 C 463.558594 725.90625 465.761719 726.578125 467.53125 725.636719 Z M 479.234375 846.722656 C 472.394531 839.710938 466.042969 832.488281 460.457031 825.144531 C 459.242188 823.546875 456.960938 823.238281 455.367188 824.449219 C 453.769531 825.664062 453.457031 827.945312 454.671875 829.542969 C 460.429688 837.117188 466.976562 844.566406 474.03125 851.796875 C 475.429688 853.230469 477.734375 853.261719 479.167969 851.859375 C 480.605469 850.460938 480.632812 848.15625 479.234375 846.722656 Z M 510.074219 250.574219 C 501.453125 246.507812 493.234375 241.75 485.355469 236.421875 C 483.695312 235.300781 481.433594 235.738281 480.308594 237.398438 C 479.1875 239.058594 479.625 241.320312 481.285156 242.441406 C 489.46875 247.976562 498.011719 252.917969 506.972656 257.144531 C 508.785156 258 510.953125 257.222656 511.808594 255.410156 C 512.664062 253.597656 511.886719 251.433594 510.074219 250.574219 Z M 456.59375 313.957031 C 465.097656 318.289062 473.476562 322.992188 481.738281 327.988281 C 483.453125 329.027344 485.6875 328.476562 486.726562 326.761719 C 487.765625 325.046875 487.214844 322.808594 485.5 321.769531 C 477.082031 316.6875 468.550781 311.890625 459.890625 307.480469 C 458.101562 306.566406 455.914062 307.28125 455.003906 309.066406 C 454.09375 310.859375 454.804688 313.046875 456.59375 313.957031 Z M 448.722656 807.402344 C 443.90625 798.769531 440.421875 790.078125 438.75 781.453125 C 438.371094 779.484375 436.460938 778.195312 434.492188 778.578125 C 432.523438 778.960938 431.234375 780.867188 431.617188 782.835938 C 433.425781 792.171875 437.160156 801.597656 442.375 810.941406 C 443.351562 812.695312 445.566406 813.324219 447.320312 812.347656 C 449.070312 811.367188 449.699219 809.152344 448.722656 807.402344 Z M 438.472656 761.128906 C 440.210938 751.679688 444.535156 744.023438 450.796875 737.695312 C 452.207031 736.269531 452.195312 733.96875 450.769531 732.554688 C 449.34375 731.144531 447.039062 731.15625 445.628906 732.582031 C 438.355469 739.933594 433.34375 748.835938 431.324219 759.816406 C 430.960938 761.789062 432.269531 763.683594 434.242188 764.046875 C 436.214844 764.410156 438.109375 763.101562 438.472656 761.128906 Z M 465.078125 465.132812 C 455.191406 464.570312 445.320312 464.640625 435.554688 465.371094 C 433.554688 465.519531 432.050781 467.265625 432.199219 469.265625 C 432.351562 471.265625 434.09375 472.765625 436.09375 472.617188 C 445.546875 471.910156 455.101562 471.84375 464.664062 472.386719 C 466.667969 472.5 468.386719 470.964844 468.5 468.964844 C 468.613281 466.960938 467.078125 465.242188 465.078125 465.132812 Z M 468.214844 223.539062 C 460.917969 217.503906 453.910156 210.992188 447.125 204.097656 C 445.71875 202.667969 443.417969 202.648438 441.988281 204.058594 C 440.558594 205.460938 440.539062 207.765625 441.945312 209.195312 C 448.90625 216.265625 456.097656 222.949219 463.582031 229.140625 C 465.125 230.417969 467.417969 230.199219 468.695312 228.65625 C 469.976562 227.109375 469.757812 224.820312 468.214844 223.539062 Z M 410.152344 295.011719 C 419.285156 297.761719 428.253906 301.0625 437.074219 304.820312 C 438.917969 305.605469 441.054688 304.75 441.839844 302.902344 C 442.625 301.054688 441.765625 298.921875 439.921875 298.136719 C 430.855469 294.277344 421.636719 290.878906 412.246094 288.054688 C 410.328125 287.476562 408.296875 288.5625 407.71875 290.484375 C 407.140625 292.40625 408.230469 294.433594 410.152344 295.011719 Z M 413.554688 468.191406 C 403.804688 469.980469 394.230469 472.488281 384.929688 475.75 C 383.039062 476.414062 382.039062 478.488281 382.703125 480.382812 C 383.367188 482.273438 385.445312 483.269531 387.335938 482.609375 C 396.28125 479.472656 405.488281 477.058594 414.867188 475.335938 C 416.839844 474.976562 418.144531 473.078125 417.785156 471.109375 C 417.421875 469.136719 415.527344 467.828125 413.554688 468.191406 Z M 432.449219 188.265625 C 426.167969 181.101562 420.054688 173.652344 414.0625 166.011719 C 412.824219 164.433594 410.539062 164.152344 408.960938 165.394531 C 407.382812 166.632812 407.105469 168.917969 408.34375 170.496094 C 414.421875 178.238281 420.617188 185.792969 426.984375 193.050781 C 428.308594 194.558594 430.605469 194.714844 432.113281 193.386719 C 433.621094 192.070312 433.773438 189.773438 432.449219 188.265625 Z M 361.042969 286.121094 C 370.664062 286.683594 380.09375 287.933594 389.347656 289.789062 C 391.316406 290.183594 393.230469 288.910156 393.625 286.9375 C 394.019531 284.972656 392.742188 283.054688 390.773438 282.664062 C 381.191406 280.742188 371.429688 279.445312 361.46875 278.863281 C 359.46875 278.75 357.746094 280.277344 357.628906 282.28125 C 357.511719 284.28125 359.042969 286.003906 361.042969 286.121094 Z M 400.910156 148.742188 C 395.171875 141.015625 389.511719 133.164062 383.875 125.273438 C 382.707031 123.644531 380.4375 123.265625 378.804688 124.433594 C 377.171875 125.597656 376.796875 127.867188 377.960938 129.5 C 383.625 137.421875 389.3125 145.308594 395.078125 153.074219 C 396.273438 154.683594 398.550781 155.023438 400.160156 153.828125 C 401.769531 152.628906 402.105469 150.351562 400.910156 148.742188 Z M 364.40625 484.484375 C 356.011719 488.859375 347.742188 494.398438 339.484375 500.417969 C 337.863281 501.597656 337.503906 503.871094 338.683594 505.492188 C 339.867188 507.113281 342.140625 507.472656 343.761719 506.289062 C 351.71875 500.492188 359.679688 495.144531 367.765625 490.925781 C 369.546875 490 370.234375 487.804688 369.308594 486.023438 C 368.382812 484.246094 366.183594 483.554688 364.40625 484.484375 Z M 371.230469 107.519531 C 365.585938 99.59375 359.925781 91.6875 354.210938 83.894531 C 353.023438 82.273438 350.746094 81.925781 349.128906 83.113281 C 347.515625 84.296875 347.164062 86.574219 348.351562 88.195312 C 354.046875 95.957031 359.683594 103.835938 365.3125 111.738281 C 366.476562 113.367188 368.746094 113.75 370.378906 112.585938 C 372.011719 111.421875 372.394531 109.152344 371.230469 107.519531 Z M 322.007812 513.582031 C 314.328125 519.433594 306.585938 525.257812 298.667969 530.480469 C 296.992188 531.582031 296.53125 533.839844 297.632812 535.511719 C 298.738281 537.1875 300.992188 537.652344 302.667969 536.546875 C 310.71875 531.238281 318.601562 525.3125 326.410156 519.363281 C 328.007812 518.148438 328.316406 515.863281 327.101562 514.269531 C 325.882812 512.675781 323.601562 512.367188 322.007812 513.582031 Z M 311.316406 289.445312 C 320.945312 287.597656 330.382812 286.480469 339.644531 286.023438 C 341.648438 285.921875 343.195312 284.214844 343.09375 282.210938 C 342.996094 280.210938 341.289062 278.664062 339.285156 278.765625 C 329.695312 279.242188 319.917969 280.394531 309.945312 282.308594 C 307.976562 282.6875 306.683594 284.589844 307.0625 286.566406 C 307.441406 288.53125 309.34375 289.824219 311.316406 289.445312 Z M 341.074219 66.386719 C 335.070312 58.585938 328.960938 50.972656 322.699219 43.636719 C 321.394531 42.109375 319.101562 41.925781 317.574219 43.226562 C 316.050781 44.53125 315.867188 46.824219 317.171875 48.351562 C 323.355469 55.597656 329.386719 63.117188 335.316406 70.820312 C 336.542969 72.40625 338.824219 72.707031 340.414062 71.484375 C 342.003906 70.257812 342.300781 67.972656 341.074219 66.386719 Z M 280.210938 541.085938 C 271.679688 545.160156 262.875 548.082031 253.671875 549.128906 C 251.679688 549.355469 250.246094 551.15625 250.472656 553.148438 C 250.699219 555.140625 252.5 556.574219 254.492188 556.347656 C 264.496094 555.214844 274.070312 552.070312 283.34375 547.644531 C 285.152344 546.78125 285.921875 544.609375 285.058594 542.800781 C 284.191406 540.988281 282.023438 540.222656 280.210938 541.085938 Z M 263.9375 304.671875 C 270.472656 301.472656 277.265625 298.722656 284.269531 296.445312 C 286.347656 295.765625 288.421875 295.128906 290.484375 294.519531 C 292.40625 293.949219 293.507812 291.929688 292.941406 290.003906 C 292.375 288.082031 290.351562 286.984375 288.429688 287.546875 C 286.300781 288.175781 284.167969 288.832031 282.023438 289.535156 C 274.691406 291.914062 267.582031 294.796875 260.742188 298.144531 C 258.941406 299.027344 258.195312 301.203125 259.078125 303.011719 C 259.960938 304.804688 262.136719 305.550781 263.9375 304.671875 Z M 307.996094 27.273438 C 301.148438 20.082031 294.089844 13.261719 286.757812 6.925781 C 285.242188 5.613281 282.945312 5.78125 281.632812 7.300781 C 280.320312 8.816406 280.488281 11.113281 282.003906 12.425781 C 289.164062 18.609375 296.050781 25.265625 302.730469 32.285156 C 304.113281 33.738281 306.414062 33.792969 307.867188 32.410156 C 309.320312 31.027344 309.375 28.730469 307.996094 27.273438 Z M 233.21875 548.136719 C 223.929688 546.011719 216.136719 541.546875 209.671875 535.378906 C 208.21875 533.992188 205.917969 534.046875 204.535156 535.496094 C 203.148438 536.949219 203.203125 539.25 204.652344 540.632812 C 212.050781 547.691406 220.96875 552.789062 231.597656 555.222656 C 233.554688 555.667969 235.503906 554.445312 235.953125 552.492188 C 236.398438 550.535156 235.175781 548.585938 233.21875 548.136719 Z M 223.691406 333.382812 C 230.367188 326.691406 237.683594 320.648438 245.53125 315.335938 C 247.191406 314.214844 247.625 311.949219 246.5 310.289062 C 245.375 308.632812 243.117188 308.195312 241.453125 309.320312 C 233.222656 314.894531 225.546875 321.230469 218.546875 328.25 C 217.128906 329.671875 217.132812 331.972656 218.554688 333.390625 C 219.972656 334.808594 222.277344 334.804688 223.691406 333.382812 Z M 195.335938 373.796875 C 199.394531 365.140625 204.261719 357.019531 209.832031 349.488281 C 211.023438 347.875 210.683594 345.597656 209.070312 344.40625 C 207.460938 343.21875 205.183594 343.554688 203.992188 345.164062 C 198.136719 353.082031 193.019531 361.621094 188.757812 370.710938 C 187.90625 372.523438 188.6875 374.6875 190.503906 375.542969 C 192.316406 376.394531 194.484375 375.609375 195.335938 373.796875 Z M 197.277344 518.910156 C 192.964844 511.078125 189.683594 502.175781 187.285156 492.683594 C 186.792969 490.742188 184.816406 489.5625 182.871094 490.050781 C 180.925781 490.542969 179.746094 492.523438 180.238281 494.464844 C 182.796875 504.582031 186.316406 514.066406 190.910156 522.414062 C 191.875 524.171875 194.085938 524.8125 195.84375 523.847656 C 197.601562 522.878906 198.242188 520.667969 197.277344 518.910156 Z M 183.457031 471.710938 C 182.332031 462.300781 181.890625 452.671875 182.027344 443.1875 C 182.058594 441.179688 180.453125 439.527344 178.449219 439.5 C 176.445312 439.46875 174.792969 441.074219 174.761719 443.078125 C 174.617188 452.886719 175.078125 462.847656 176.242188 472.574219 C 176.480469 474.566406 178.292969 475.988281 180.285156 475.75 C 182.273438 475.511719 183.695312 473.703125 183.457031 471.710938 Z M 183.335938 421.769531 C 184.421875 411.707031 186.132812 402.175781 188.332031 393.699219 C 188.835938 391.761719 187.671875 389.769531 185.726562 389.269531 C 183.789062 388.765625 181.804688 389.929688 181.300781 391.875 C 179.015625 400.667969 177.238281 410.554688 176.109375 420.988281 C 175.894531 422.984375 177.339844 424.777344 179.332031 424.992188 C 181.328125 425.207031 183.121094 423.761719 183.335938 421.769531 Z M 183.335938 421.769531 " fill-opacity="1" fill-rule="evenodd"/></g></g></g></svg>